<svg xmlns="http://www.w3.org/2000/svg" viewBox="0 0 32 32" width="32" height="32">
  <defs>
    <linearGradient id="gradient" x1="0%" y1="0%" x2="100%" y2="100%">
      <stop offset="0%" style="stop-color:#3b82f6;stop-opacity:1" />
      <stop offset="100%" style="stop-color:#8b5cf6;stop-opacity:1" />
    </linearGradient>
  </defs>
  <rect width="32" height="32" rx="6" fill="url(#gradient)" />
  <path d="M24 10V8a2 2 0 0 0-2-2H10a2 2 0 0 0-2 2v2h16zM8 12v10a2 2 0 0 0 2 2h12a2 2 0 0 0 2-2V12H8zm10 5a1 1 0 1 1-2 0 1 1 0 0 1 2 0z" fill="white"/>
</svg>
